<svg width="190" height="150" viewBox="0 0 190 150" fill="none" xmlns="http://www.w3.org/2000/svg">
<path d="M95 14.0625C65.498 14.0625 41.5625 32.0479 41.5625 54.1992C41.5625 79.6875 77.1875 120.079 90.2686 134.03C90.8115 134.619 91.5232 135.098 92.3455 135.429C93.1678 135.759 94.0773 135.931 95 135.931C95.9227 135.931 96.8322 135.759 97.6545 135.429C98.4768 135.098 99.1885 134.619 99.7314 134.03C112.812 120.085 148.438 79.708 148.438 54.1992C148.438 32.0479 124.502 14.0625 95 14.0625Z" stroke="white" stroke-width="5" stroke-linecap="round" stroke-linejoin="round"/>
<path d="M95 70.3125C104.838 70.3125 112.812 64.0165 112.812 56.25C112.812 48.4835 104.838 42.1875 95 42.1875C85.1624 42.1875 77.1875 48.4835 77.1875 56.25C77.1875 64.0165 85.1624 70.3125 95 70.3125Z" stroke="white" stroke-width="5" stroke-linecap="round" stroke-linejoin="round"/>
</svg>
