<svg width="190" height="150" viewBox="0 0 190 150" fill="none" xmlns="http://www.w3.org/2000/svg">
<path d="M167.363 109.57C161.47 104.883 147.198 98.042 140.273 95.2851C131.256 91.6992 130.514 91.4062 123.426 95.5635C118.698 98.3379 115.555 100.816 110.022 99.8848C104.489 98.9531 92.4654 93.7002 81.9375 85.415C71.4096 77.1299 64.3699 67.3623 63.1861 63.0088C62.0024 58.6553 65.1938 56.2031 68.6746 52.4619C73.5805 47.1885 73.2094 46.3096 69.016 39.1904C65.7467 33.6533 56.8293 22.4912 50.8695 17.8623C44.4941 12.8906 44.4941 13.7695 40.3861 15.1172C37.0417 16.2281 33.8332 17.5784 30.8008 19.1514C24.8633 22.2656 21.568 24.8525 19.2635 28.7402C16.959 32.6279 15.9236 41.7422 27.8246 58.8105C39.7256 75.8789 48.0752 84.6064 65.357 98.2119C82.6389 111.817 95.9278 119.133 115.355 127.734C139.387 138.36 148.605 136.289 153.544 134.473C158.483 132.656 161.775 130.078 165.727 125.391C167.724 123.001 169.439 120.47 170.848 117.832C172.559 114.601 173.672 114.601 167.363 109.57Z" stroke="white" stroke-width="5" stroke-miterlimit="10"/>
</svg>
