<svg width="321" height="278" viewBox="0 0 321 278" fill="none" xmlns="http://www.w3.org/2000/svg">
<path d="M113.231 28.1739L112.429 30.5418L112.43 30.5421L113.231 28.1739ZM16.7239 28.0661L17.5276 30.4334L17.5358 30.4306L16.7239 28.0661ZM13.459 33.322L15.6087 32.0457L15.6078 32.0443L13.459 33.322ZM60.3507 117.637L62.5137 116.383L62.5121 116.38L60.3507 117.637ZM69.6623 117.637L71.8252 118.89L71.8369 118.87L71.8482 118.85L69.6623 117.637ZM116.366 33.4837L114.181 32.2686L114.18 32.2705L116.366 33.4837ZM123.483 17.2848L124.268 14.9114L124.264 14.91L123.483 17.2848ZM6.47206 17.1231L5.68214 14.7512L5.67436 14.7538L5.6666 14.7564L6.47206 17.1231ZM2.88296 20.8427L0.553133 21.7493L0.588808 21.8409L0.631576 21.9295L2.88296 20.8427ZM6.02139 27.3438L3.77001 28.4306L3.81399 28.5217L3.86519 28.609L6.02139 27.3438ZM13.2644 28.9663L12.4962 26.5873L12.4851 26.5909L13.2644 28.9663ZM116.745 28.9609L115.952 31.3316L115.963 31.3354L115.974 31.3391L116.745 28.9609ZM123.969 27.3653L126.169 28.5533L126.193 28.5081L126.216 28.4618L123.969 27.3653ZM127.137 20.875L129.383 21.9715L129.422 21.8917L129.455 21.8094L127.137 20.875ZM268.898 106.938C268.898 105.557 267.779 104.438 266.398 104.438C265.018 104.438 263.898 105.557 263.898 106.938H268.898ZM189.789 106.938C189.789 105.557 188.67 104.438 187.289 104.438C185.908 104.438 184.789 105.557 184.789 106.938H189.789ZM270.938 82.7188C269.557 82.7188 268.438 83.838 268.438 85.2188C268.438 86.5995 269.557 87.7188 270.938 87.7188V82.7188ZM182.75 87.7188C184.131 87.7188 185.25 86.5995 185.25 85.2188C185.25 83.838 184.131 82.7188 182.75 82.7188V87.7188ZM220.136 85.2188V82.7188H220.135L220.136 85.2188ZM218.304 85.854L216.7 83.9364L216.699 83.9373L218.304 85.854ZM209.605 93.138L208 91.2212L207.999 91.2221L209.605 93.138ZM207.77 93.138L209.376 91.2221L209.375 91.2212L207.77 93.138ZM199.071 85.854L200.676 83.9373L200.675 83.9364L199.071 85.854ZM197.239 85.2188L197.24 82.7188H197.239V85.2188ZM180.25 68.9297C180.25 70.3104 181.369 71.4297 182.75 71.4297C184.131 71.4297 185.25 70.3104 185.25 68.9297H180.25ZM273.438 68.87C273.438 67.4892 272.318 66.37 270.938 66.37C269.557 66.37 268.438 67.4892 268.438 68.87H273.438ZM242.613 24.0623C242.423 22.6947 241.16 21.7401 239.793 21.93C238.425 22.12 237.471 23.3826 237.661 24.7502L242.613 24.0623ZM240.073 42.117C240.263 43.4846 241.525 44.4393 242.893 44.2493C244.26 44.0594 245.215 42.7967 245.025 41.4292L240.073 42.117ZM245 121.812C243.619 121.812 242.5 122.932 242.5 124.312C242.5 125.693 243.619 126.812 245 126.812V121.812ZM290.167 124.312V126.812H290.167L290.167 124.312ZM300.513 116.274L298.032 115.961L298.027 116.006L298.023 116.051L300.513 116.274ZM314.594 24.7194C314.767 23.3496 313.796 22.0989 312.427 21.9259C311.057 21.753 309.806 22.7232 309.633 24.0931L314.594 24.7194ZM278.917 23.691C278.522 25.014 279.274 26.4068 280.597 26.8018C281.92 27.1968 283.313 26.4445 283.708 25.1215L278.917 23.691ZM286.5 7.03125L285.815 4.62702C284.994 4.86107 284.349 5.49795 284.105 6.31604L286.5 7.03125ZM302.424 5.09173C303.751 4.71323 304.521 3.32998 304.143 2.00216C303.764 0.674344 302.381 -0.0952294 301.053 0.283272L302.424 5.09173ZM234.625 21.9062C233.244 21.9062 232.125 23.0255 232.125 24.4062C232.125 25.787 233.244 26.9062 234.625 26.9062V21.9062ZM317.625 26.9062C319.006 26.9062 320.125 25.787 320.125 24.4062C320.125 23.0255 319.006 21.9062 317.625 21.9062V26.9062ZM116.875 262.125H119.375H116.875ZM62.5 275.062C62.5 276.443 63.6193 277.562 65 277.562C66.3807 277.562 67.5 276.443 67.5 275.062H62.5ZM281.313 194.938C279.932 194.938 278.813 196.057 278.813 197.438C278.813 198.818 279.932 199.938 281.313 199.938V194.938ZM193.125 171.562V169.062C191.744 169.062 190.625 170.182 190.625 171.562H193.125ZM182.75 259.625C181.369 259.625 180.25 260.744 180.25 262.125C180.25 263.506 181.369 264.625 182.75 264.625V259.625ZM291.688 264.625C293.068 264.625 294.188 263.506 294.188 262.125C294.188 260.744 293.068 259.625 291.688 259.625V264.625ZM114.033 25.806C98.6855 20.608 82.6238 18.375 65 18.375V23.375C82.1909 23.375 97.6951 25.5515 112.429 30.5418L114.033 25.806ZM65 18.375C47.3847 18.375 30.1073 20.8268 15.9119 25.7016L17.5358 30.4306C31.0935 25.7747 47.8008 23.375 65 23.375V18.375ZM15.9201 25.6988C14.532 26.1701 12.7166 26.958 11.5481 28.3772C10.9112 29.1506 10.441 30.1439 10.3929 31.3306C10.3458 32.4918 10.7125 33.5946 11.3101 34.5996L15.6078 32.0443C15.3641 31.6343 15.3908 31.4837 15.3888 31.5332C15.3857 31.608 15.3457 31.631 15.408 31.5554C15.4946 31.4502 15.6962 31.268 16.092 31.0466C16.4781 30.8307 16.9636 30.6249 17.5276 30.4334L15.9201 25.6988ZM11.3093 34.5982C11.965 35.7027 20.5122 51.3135 30.5275 69.4634C40.5092 87.5525 51.9054 108.083 58.1894 118.893L62.5121 116.38C56.2618 105.628 44.8945 85.1506 34.9052 67.0477C24.9494 49.0056 16.3179 33.2403 15.6087 32.0457L11.3093 34.5982ZM58.1878 118.89C58.8715 120.07 59.9019 121 61.1001 121.626L63.4147 117.194C62.9657 116.959 62.6743 116.66 62.5137 116.383L58.1878 118.89ZM61.1001 121.626C62.2978 122.251 63.6503 122.568 65.0065 122.568V117.568C64.4174 117.568 63.8642 117.429 63.4147 117.194L61.1001 121.626ZM65.0065 122.568C66.3627 122.568 67.7152 122.251 68.9129 121.626L66.5983 117.194C66.1488 117.429 65.5956 117.568 65.0065 117.568V122.568ZM68.9129 121.626C70.1111 121 71.1415 120.07 71.8252 118.89L67.4993 116.383C67.3387 116.66 67.0474 116.959 66.5983 117.194L68.9129 121.626ZM71.8482 118.85L118.552 34.6968L114.18 32.2705L67.4764 116.424L71.8482 118.85ZM118.551 34.6987C119.422 33.133 119.607 31.2108 118.698 29.4299C117.823 27.7132 116.133 26.5162 114.032 25.8057L112.43 30.5421C113.756 30.9906 114.151 31.5186 114.244 31.7021C114.305 31.8213 114.345 31.9746 114.181 32.2686L118.551 34.6987ZM124.264 14.91C107.147 9.28054 86.0884 5.4375 65 5.4375V10.4375C85.5219 10.4375 106.054 14.1845 122.702 19.6597L124.264 14.91ZM65 5.4375C43.934 5.4375 23.1827 8.923 5.68214 14.7512L7.26198 19.4951C24.2389 13.8412 44.4558 10.4375 65 10.4375V5.4375ZM5.6666 14.7564C4.86865 15.028 3.44556 15.5606 2.29767 16.4365C1.71443 16.8816 1.03539 17.5391 0.620427 18.4613C0.166113 19.4711 0.113069 20.6183 0.553133 21.7493L5.21278 19.9361C5.26216 20.063 5.27234 20.308 5.18014 20.5129C5.12729 20.6304 5.10925 20.5805 5.33088 20.4114C5.53688 20.2542 5.83427 20.0822 6.20641 19.9107C6.56944 19.7433 6.94511 19.6029 7.27752 19.4898L5.6666 14.7564ZM0.631576 21.9295L3.77001 28.4306L8.27278 26.2569L5.13434 19.7558L0.631576 21.9295ZM3.86519 28.609C4.75834 30.1311 5.89531 31.136 7.35577 31.6406C8.62862 32.0804 9.97742 32.0539 10.9041 32.0539V27.0539C9.75908 27.0539 9.31495 27.0275 8.98859 26.9147C8.84984 26.8668 8.58132 26.7666 8.1776 26.0785L3.86519 28.609ZM10.9041 32.0539C11.5318 32.0539 12.1365 31.9156 12.5907 31.7928C13.0654 31.6645 13.5816 31.4934 14.0438 31.3418L12.4851 26.5909C11.9778 26.7573 11.6041 26.88 11.286 26.966C10.9475 27.0575 10.8568 27.0539 10.9041 27.0539V32.0539ZM14.0327 31.3454C30.2774 26.0998 47.5594 23.3957 65.003 23.375L64.9971 18.375C47.0448 18.3963 29.2458 21.1787 12.4962 26.5873L14.0327 31.3454ZM65 23.375C83.1415 23.375 101.726 26.5684 115.952 31.3316L117.539 26.5903C102.786 21.6503 83.6638 18.375 65 18.375V23.375ZM115.974 31.3391C116.953 31.6562 118.063 32.0485 119.106 32.0485V27.0485C119.145 27.0485 119.085 27.0561 118.797 26.9797C118.502 26.9014 118.123 26.7794 117.516 26.5828L115.974 31.3391ZM119.106 32.0485C119.629 32.0485 119.852 32.0791 120.487 32.0965C120.989 32.1102 121.676 32.1069 122.408 31.9157C124.107 31.4717 125.249 30.2553 126.169 28.5533L121.769 26.1773C121.472 26.7271 121.267 26.9595 121.174 27.0468C121.132 27.0851 121.117 27.0912 121.127 27.0858C121.138 27.0798 121.147 27.0772 121.143 27.0782C121.113 27.0862 120.999 27.1086 120.623 27.0983C120.38 27.0917 119.649 27.0485 119.106 27.0485V32.0485ZM126.216 28.4618L129.383 21.9715L124.89 19.7785L121.722 26.2688L126.216 28.4618ZM129.455 21.8094C129.879 20.7584 129.826 19.6856 129.428 18.7484C129.062 17.889 128.456 17.2498 127.909 16.7981C126.825 15.9036 125.416 15.2913 124.268 14.9114L122.697 19.6583C123.585 19.9522 124.329 20.3264 124.726 20.6542C124.919 20.8137 124.886 20.8446 124.826 20.7047C124.734 20.487 124.72 20.183 124.818 19.9406L129.455 21.8094ZM52.125 46.75C52.125 49.7203 49.0515 52.875 44.25 52.875V57.875C50.9085 57.875 57.125 53.3067 57.125 46.75H52.125ZM44.25 52.875C39.4486 52.875 36.375 49.7203 36.375 46.75H31.375C31.375 53.3067 37.5916 57.875 44.25 57.875V52.875ZM36.375 46.75C36.375 43.7797 39.4486 40.625 44.25 40.625V35.625C37.5916 35.625 31.375 40.1933 31.375 46.75H36.375ZM44.25 40.625C49.0515 40.625 52.125 43.7797 52.125 46.75H57.125C57.125 40.1933 50.9085 35.625 44.25 35.625V40.625ZM93.625 51.0625C93.625 54.0328 90.5515 57.1875 85.75 57.1875V62.1875C92.4085 62.1875 98.625 57.6192 98.625 51.0625H93.625ZM85.75 57.1875C80.9486 57.1875 77.875 54.0328 77.875 51.0625H72.875C72.875 57.6192 79.0916 62.1875 85.75 62.1875V57.1875ZM77.875 51.0625C77.875 48.0922 80.9486 44.9375 85.75 44.9375V39.9375C79.0916 39.9375 72.875 44.5058 72.875 51.0625H77.875ZM85.75 44.9375C90.5515 44.9375 93.625 48.0922 93.625 51.0625H98.625C98.625 44.5058 92.4085 39.9375 85.75 39.9375V44.9375ZM72.875 81.25C72.875 84.2203 69.8015 87.375 65 87.375V92.375C71.6585 92.375 77.875 87.8067 77.875 81.25H72.875ZM65 87.375C60.1986 87.375 57.125 84.2203 57.125 81.25H52.125C52.125 87.8067 58.3416 92.375 65 92.375V87.375ZM57.125 81.25C57.125 78.2797 60.1986 75.125 65 75.125V70.125C58.3416 70.125 52.125 74.6933 52.125 81.25H57.125ZM65 75.125C69.8015 75.125 72.875 78.2797 72.875 81.25H77.875C77.875 74.6933 71.6585 70.125 65 70.125V75.125ZM263.898 106.938C263.898 111.15 262.436 114.839 259.84 117.467C257.257 120.081 253.385 121.812 248.242 121.812V126.812C254.561 126.812 259.767 124.655 263.397 120.981C267.014 117.32 268.898 112.322 268.898 106.938H263.898ZM248.242 121.812H205.445V126.812H248.242V121.812ZM205.445 121.812C200.303 121.812 196.431 120.081 193.848 117.467C191.252 114.839 189.789 111.15 189.789 106.938H184.789C184.789 112.322 186.674 117.32 190.291 120.981C193.92 124.655 199.127 126.812 205.445 126.812V121.812ZM270.938 87.7188C275.18 87.7188 278.813 91.3531 278.813 96.0781H283.813C283.813 88.809 278.153 82.7188 270.938 82.7188V87.7188ZM278.813 96.0781C278.813 100.803 275.18 104.438 270.938 104.438V109.438C278.153 109.438 283.813 103.347 283.813 96.0781H278.813ZM270.938 104.438H182.75V109.438H270.938V104.438ZM182.75 104.438C178.508 104.438 174.875 100.803 174.875 96.0781H169.875C169.875 103.347 175.534 109.438 182.75 109.438V104.438ZM174.875 96.0781C174.875 91.3531 178.508 87.7188 182.75 87.7188V82.7188C175.534 82.7188 169.875 88.809 169.875 96.0781H174.875ZM273.531 82.7188H220.136V87.7188H273.531V82.7188ZM220.135 82.7188C218.915 82.7192 217.675 83.1212 216.7 83.9364L219.908 87.7717C219.902 87.7762 219.918 87.7617 219.964 87.746C220.008 87.7305 220.068 87.7188 220.137 87.7188L220.135 82.7188ZM216.699 83.9373L208 91.2212L211.21 95.0547L219.909 87.7708L216.699 83.9373ZM207.999 91.2221C208.125 91.1163 208.252 91.0508 208.364 91.0119L210.004 95.7354C210.431 95.5872 210.844 95.3615 211.211 95.0538L207.999 91.2221ZM208.364 91.0119C208.477 90.9729 208.585 90.9564 208.688 90.9564V95.9564C209.131 95.9564 209.577 95.8837 210.004 95.7354L208.364 91.0119ZM208.688 90.9564C208.79 90.9564 208.898 90.9729 209.011 91.0119L207.371 95.7354C207.798 95.8837 208.245 95.9564 208.688 95.9564V90.9564ZM209.011 91.0119C209.123 91.0508 209.25 91.1163 209.376 91.2221L206.164 95.0538C206.531 95.3615 206.944 95.5872 207.371 95.7354L209.011 91.0119ZM209.375 91.2212L200.676 83.9373L197.466 87.7708L206.165 95.0547L209.375 91.2212ZM200.675 83.9364C199.701 83.1212 198.46 82.7192 197.24 82.7188L197.238 87.7188C197.307 87.7188 197.367 87.7305 197.412 87.746C197.457 87.7617 197.473 87.7762 197.467 87.7717L200.675 83.9364ZM197.239 82.7188H180.156V87.7188H197.239V82.7188ZM180.156 82.7188C178.626 82.7188 177.229 82.206 176.259 81.3936L173.049 85.2271C174.997 86.8586 177.559 87.7188 180.156 87.7188V82.7188ZM176.259 81.3936C175.302 80.5922 174.875 79.6104 174.875 78.7031H169.875C169.875 81.2519 171.088 83.5847 173.049 85.2271L176.259 81.3936ZM174.875 78.7031C174.875 77.7958 175.302 76.814 176.259 76.0126L173.049 72.1791C171.088 73.8216 169.875 76.1543 169.875 78.7031H174.875ZM176.259 76.0126C177.229 75.2003 178.626 74.6875 180.156 74.6875V69.6875C177.559 69.6875 174.997 70.5477 173.049 72.1791L176.259 76.0126ZM180.156 74.6875H273.531V69.6875H180.156V74.6875ZM273.531 74.6875C275.061 74.6875 276.458 75.2003 277.428 76.0126L280.638 72.1791C278.69 70.5477 276.129 69.6875 273.531 69.6875V74.6875ZM277.428 76.0126C278.386 76.8141 278.813 77.7958 278.813 78.7031H283.813C283.813 76.1543 282.6 73.8215 280.638 72.1791L277.428 76.0126ZM278.813 78.7031C278.813 79.6104 278.386 80.5922 277.428 81.3936L280.638 85.2271C282.6 83.5847 283.813 81.2519 283.813 78.7031H278.813ZM277.428 81.3936C276.458 82.206 275.061 82.7188 273.531 82.7188V87.7188C276.129 87.7188 278.69 86.8586 280.638 85.2271L277.428 81.3936ZM185.25 68.9297V68.87H180.25V68.9297H185.25ZM185.25 68.87C185.25 62.3586 188.374 57.4151 193.636 53.9942C198.989 50.5151 206.575 48.625 215.172 48.625V43.625C205.936 43.625 197.312 45.6415 190.911 49.802C184.421 54.0207 180.25 60.4496 180.25 68.87H185.25ZM215.172 48.625H238.516V43.625H215.172V48.625ZM238.516 48.625C247.109 48.625 254.695 50.5287 260.047 54.0216C265.312 57.4573 268.438 62.4168 268.438 68.9297H273.438C273.438 60.5109 269.268 54.0681 262.78 49.8343C256.38 45.6579 247.755 43.625 238.516 43.625V48.625ZM273.438 68.9297V68.87H268.438V68.9297H273.438ZM237.661 24.7502L240.073 42.117L245.025 41.4292L242.613 24.0623L237.661 24.7502ZM245 126.812H290.167V121.812H245V126.812ZM290.167 126.812C293.294 126.812 296.366 125.826 298.758 123.967L295.69 120.019C294.245 121.142 292.275 121.812 290.167 121.812L290.167 126.812ZM298.758 123.967C301.159 122.101 302.738 119.452 303.003 116.497L298.023 116.051C297.896 117.467 297.126 118.903 295.69 120.019L298.758 123.967ZM302.993 116.587L314.594 24.7194L309.633 24.0931L298.032 115.961L302.993 116.587ZM283.708 25.1215L288.896 7.74646L284.105 6.31604L278.917 23.691L283.708 25.1215ZM287.185 9.43548L302.424 5.09173L301.053 0.283272L285.815 4.62702L287.185 9.43548ZM234.625 26.9062H317.625V21.9062H234.625V26.9062ZM62.5 178.031V193.125H67.5V178.031H62.5ZM65 195.625H83.1563V190.625H65V195.625ZM83.1563 195.625C87.1494 195.625 91.0809 194.642 94.4573 192.767L92.0294 188.396C89.4342 189.837 86.3451 190.625 83.1563 190.625V195.625ZM94.4573 192.767C97.8347 190.891 100.544 188.181 102.168 184.922L97.6928 182.692C96.5681 184.95 94.6235 186.955 92.0294 188.396L94.4573 192.767ZM102.168 184.922C103.797 181.652 104.236 178.018 103.395 174.505L98.5323 175.668C99.0928 178.011 98.812 180.446 97.6928 182.692L102.168 184.922ZM103.395 174.505C102.557 171.001 100.505 167.857 97.5929 165.436L94.3965 169.281C96.5629 171.082 97.9697 173.317 98.5323 175.668L103.395 174.505ZM97.5929 165.436C94.6847 163.018 91.0295 161.41 87.1062 160.761L86.2905 165.694C89.4112 166.21 92.2263 167.477 94.3965 169.281L97.5929 165.436ZM87.1062 160.761C83.1822 160.112 79.1113 160.443 75.3942 161.723L77.0221 166.45C79.9403 165.445 83.1706 165.178 86.2905 165.694L87.1062 160.761ZM75.3942 161.723C71.6777 163.002 68.4314 165.193 66.1113 168.079L70.0085 171.212C71.6785 169.134 74.1034 167.455 77.0221 166.45L75.3942 161.723ZM66.1113 168.079C63.785 170.974 62.5 174.437 62.5 178.031H67.5C67.5 175.655 68.3448 173.282 70.0085 171.212L66.1113 168.079ZM65 190.625H46.8438V195.625H65V190.625ZM46.8438 190.625C43.655 190.625 40.5658 189.837 37.9707 188.396L35.5427 192.767C38.9192 194.642 42.8506 195.625 46.8438 195.625V190.625ZM37.9707 188.396C35.3765 186.955 33.432 184.95 32.3072 182.692L27.832 184.922C29.4556 188.181 32.1653 190.891 35.5427 192.767L37.9707 188.396ZM32.3072 182.692C31.188 180.446 30.9072 178.011 31.4678 175.668L26.605 174.505C25.7644 178.018 26.2028 181.652 27.832 184.922L32.3072 182.692ZM31.4678 175.668C32.0304 173.317 33.4371 171.082 35.6035 169.281L32.4072 165.436C29.4952 167.857 27.4435 171.001 26.605 174.505L31.4678 175.668ZM35.6035 169.281C37.7738 167.477 40.5889 166.21 43.7095 165.694L42.8938 160.761C38.9705 161.41 35.3153 163.018 32.4072 165.436L35.6035 169.281ZM43.7095 165.694C46.8294 165.178 50.0598 165.445 52.9779 166.45L54.6058 161.723C50.8887 160.443 46.8178 160.112 42.8938 160.761L43.7095 165.694ZM52.9779 166.45C55.8967 167.455 58.3216 169.134 59.9915 171.212L63.8887 168.079C61.5686 165.193 58.3223 163.002 54.6058 161.723L52.9779 166.45ZM59.9915 171.212C61.6553 173.282 62.5 175.655 62.5 178.031H67.5C67.5 174.437 66.2151 170.974 63.8887 168.079L59.9915 171.212ZM13.125 195.625H116.875V190.625H13.125V195.625ZM116.875 195.625C121.677 195.625 124.75 198.78 124.75 201.75H129.75C129.75 195.193 123.533 190.625 116.875 190.625V195.625ZM124.75 201.75V214.688H129.75V201.75H124.75ZM124.75 214.688C124.75 217.658 121.677 220.812 116.875 220.812V225.812C123.533 225.812 129.75 221.244 129.75 214.688H124.75ZM116.875 220.812H13.125V225.812H116.875V220.812ZM13.125 220.812C8.32356 220.812 5.25003 217.658 5.25003 214.688H0.250027C0.250027 221.244 6.46659 225.812 13.125 225.812V220.812ZM5.25003 214.688V201.75H0.250027V214.688H5.25003ZM5.25003 201.75C5.25003 198.78 8.32356 195.625 13.125 195.625V190.625C6.46659 190.625 0.250027 195.193 0.250027 201.75H5.25003ZM114.375 223.312V262.125H119.375V223.312H114.375ZM114.375 262.125C114.375 264.728 113.134 267.342 110.719 269.351L113.915 273.196C117.336 270.351 119.375 266.384 119.375 262.125H114.375ZM110.719 269.351C108.29 271.37 104.911 272.562 101.313 272.562V277.562C105.969 277.562 110.507 276.029 113.915 273.196L110.719 269.351ZM101.313 272.562H28.6875V277.562H101.313V272.562ZM28.6875 272.562C25.0891 272.562 21.7105 271.37 19.2814 269.351L16.085 273.196C19.4929 276.029 24.0311 277.562 28.6875 277.562V272.562ZM19.2814 269.351C16.8656 267.342 15.625 264.728 15.625 262.125H10.625C10.625 266.384 12.6637 270.351 16.085 273.196L19.2814 269.351ZM15.625 262.125V223.312H10.625V262.125H15.625ZM62.5 193.125V275.062H67.5V193.125H62.5ZM281.313 174.062H302.063V169.062H281.313V174.062ZM302.063 174.062C302.909 174.062 303.649 174.346 304.132 174.748L307.329 170.903C305.867 169.688 303.967 169.062 302.063 169.062V174.062ZM304.132 174.748C304.603 175.139 304.75 175.559 304.75 175.875H309.75C309.75 173.903 308.804 172.13 307.329 170.903L304.132 174.748ZM304.75 175.875V185.039H309.75V175.875H304.75ZM304.75 185.039C304.75 187.5 303.578 189.976 301.284 191.884L304.48 195.729C307.78 192.985 309.75 189.155 309.75 185.039H304.75ZM301.284 191.884C298.976 193.802 295.762 194.938 292.336 194.938V199.938C296.82 199.938 301.194 198.461 304.48 195.729L301.284 191.884ZM292.336 194.938H281.313V199.938H292.336V194.938ZM193.125 174.062H281.313V169.062H193.125V174.062ZM278.813 171.562V223.312H283.813V171.562H278.813ZM278.813 223.312C278.813 225.745 278.237 228.168 277.101 230.449L281.576 232.679C283.046 229.728 283.813 226.544 283.813 223.312H278.813ZM277.101 230.449C275.963 232.733 274.278 234.841 272.117 236.637L275.314 240.482C277.97 238.274 280.107 235.628 281.576 232.679L277.101 230.449ZM272.117 236.637C269.956 238.434 267.366 239.879 264.487 240.87L266.115 245.597C269.53 244.422 272.658 242.689 275.314 240.482L272.117 236.637ZM264.487 240.87C261.608 241.861 258.511 242.375 255.375 242.375V247.375C259.052 247.375 262.7 246.773 266.115 245.597L264.487 240.87ZM255.375 242.375H219.063V247.375H255.375V242.375ZM219.063 242.375C212.712 242.375 206.695 240.274 202.32 236.637L199.124 240.482C204.477 244.933 211.654 247.375 219.063 247.375V242.375ZM202.32 236.637C197.959 233.011 195.625 228.203 195.625 223.312H190.625C190.625 229.859 193.757 236.02 199.124 240.482L202.32 236.637ZM195.625 223.312V171.562H190.625V223.312H195.625ZM182.75 264.625H291.688V259.625H182.75V264.625Z" fill="white"/>
</svg>
