<svg width="167" height="16" viewBox="0 0 167 16" fill="none" xmlns="http://www.w3.org/2000/svg">
<path d="M16.5309 6.37336L24.0443 6.37336L18.1962 9.0486L17.7194 9.2667L17.9598 9.73258L20.3272 14.32L13.708 11.292L13.5 11.1969L13.292 11.292L6.67284 14.32L9.04016 9.73258L9.28058 9.2667L8.80383 9.0486L2.95569 6.37336L10.4691 6.37336H10.7737L10.9134 6.10265L13.5 1.09031L16.0866 6.10265L16.2263 6.37336H16.5309ZM51.5309 6.37336L59.0443 6.37336L53.1962 9.0486L52.7194 9.2667L52.9598 9.73258L55.3272 14.32L48.708 11.292L48.5 11.1969L48.292 11.292L41.6728 14.32L44.0402 9.73258L44.2806 9.2667L43.8038 9.0486L37.9557 6.37336L45.4691 6.37336H45.7737L45.9134 6.10265L48.5 1.09031L51.0866 6.10265L51.2263 6.37336H51.5309ZM83.5 1.09031L86.0866 6.10265L86.2263 6.37336H86.5309L94.0443 6.37336L88.1962 9.0486L87.7194 9.2667L87.9598 9.73258L90.3271 14.32L83.708 11.292L83.5 11.1969L83.292 11.292L76.6728 14.32L79.0402 9.73258L79.2806 9.2667L78.8038 9.0486L72.9557 6.37336L80.4691 6.37336H80.7737L80.9134 6.10265L83.5 1.09031ZM121.531 6.37336L129.044 6.37336L123.196 9.0486L122.719 9.2667L122.96 9.73258L125.327 14.32L118.708 11.292L118.5 11.1969L118.292 11.292L111.673 14.32L114.04 9.73258L114.281 9.2667L113.804 9.0486L107.956 6.37336L115.469 6.37336H115.774L115.913 6.10265L118.5 1.09031L121.087 6.10265L121.226 6.37336H121.531ZM153.5 1.0903L156.087 6.10265L156.226 6.37336H156.531L164.044 6.37336L158.196 9.0486L157.719 9.2667L157.96 9.73258L160.327 14.32L153.708 11.292L153.5 11.1969L153.292 11.292L146.673 14.32L149.04 9.73258L149.281 9.2667L148.804 9.0486L142.956 6.37336L150.469 6.37336H150.774L150.913 6.10265L153.5 1.0903Z" fill="#E4690F" stroke="#504B4B"/>
</svg>
